<?xml version="1.0" standalone="no"?>
<!DOCTYPE svg PUBLIC "-//W3C//DTD SVG 20010904//EN"
 "http://www.w3.org/TR/2001/REC-SVG-20010904/DTD/svg10.dtd">
<svg version="1.0" xmlns="http://www.w3.org/2000/svg"
 width="1080.000000pt" height="1080.000000pt" viewBox="0 0 1080.000000 1080.000000"
 preserveAspectRatio="xMidYMid meet">
<metadata>
Created by potrace 1.14, written by Peter Selinger 2001-2017
</metadata>
<g transform="translate(0.000000,1080.000000) scale(0.100000,-0.100000)"
fill="#000000" stroke="none">
<path d="M4235 9664 c-361 -38 -639 -112 -915 -245 -243 -118 -453 -272 -624
-461 -255 -282 -379 -559 -393 -878 -12 -288 43 -530 229 -1005 50 -126 114
-298 144 -381 l53 -151 -102 -12 c-446 -54 -877 -293 -1128 -626 -136 -180
-257 -437 -309 -653 -7 -32 -19 -56 -29 -59 -175 -61 -316 -143 -417 -242 -44
-43 -75 -85 -101 -138 -33 -67 -37 -84 -37 -147 1 -50 7 -85 22 -120 12 -27
22 -52 22 -57 0 -5 -16 -33 -35 -64 -103 -160 -167 -447 -136 -610 23 -124
129 -301 264 -442 126 -131 225 -170 412 -160 93 5 106 3 185 -25 119 -42 250
-49 333 -18 57 21 127 70 190 133 26 27 44 35 86 40 114 14 208 79 293 204 45
68 51 73 86 74 88 1 173 58 219 145 69 132 79 316 27 470 -49 145 -250 370
-427 478 -74 45 -96 64 -91 75 4 9 11 32 17 53 24 84 -42 225 -138 293 -44 32
-183 85 -221 85 -22 0 -17 36 19 142 81 234 274 443 535 576 175 90 343 135
511 136 l95 1 13 -45 c41 -138 135 -493 224 -843 111 -441 156 -585 231 -731
200 -388 596 -661 1105 -760 l122 -24 233 -163 c398 -278 1106 -799 1354 -995
12 -9 11 -22 -5 -87 -44 -171 -34 -338 27 -437 31 -50 104 -104 163 -120 33
-9 39 -15 39 -38 1 -37 39 -127 80 -187 48 -71 153 -172 240 -231 41 -28 118
-94 170 -146 78 -78 106 -99 155 -117 70 -27 129 -24 216 8 237 89 905 689
1340 1203 333 394 521 710 558 939 14 82 14 223 1 271 -16 55 -69 128 -125
171 -58 44 -174 102 -225 112 -21 5 -55 26 -85 54 -186 173 -322 229 -529 218
-239 -13 -485 -143 -706 -374 -52 -54 -120 -137 -151 -183 -114 -172 -217
-407 -259 -592 -17 -76 -26 -97 -42 -101 -10 -3 -58 9 -106 25 -75 27 -101 31
-192 32 -91 0 -113 -3 -167 -25 l-61 -26 -459 331 c-252 182 -506 365 -565
406 -114 80 -115 81 -29 94 37 6 42 4 37 -9 -3 -8 -8 -21 -11 -27 -4 -12 295
-228 320 -232 25 -3 165 329 165 393 0 13 20 27 78 50 106 45 252 123 342 185
98 67 255 223 311 309 43 67 45 68 79 63 199 -31 414 -31 550 -1 195 44 408
193 568 396 l52 67 62 -27 c55 -23 77 -26 173 -26 127 0 169 15 226 84 l34 41
55 -16 c30 -9 111 -18 180 -21 273 -12 508 70 686 239 179 170 268 353 244
501 -10 66 -39 142 -72 190 l-25 37 31 62 c26 52 30 72 29 132 0 39 -5 82 -11
96 l-10 26 120 23 c158 30 318 81 398 128 96 56 199 163 241 248 82 170 20
334 -161 425 -87 44 -174 61 -311 61 -260 0 -428 -52 -874 -271 -426 -210
-489 -229 -579 -176 -83 49 -135 136 -136 231 0 65 -23 155 -57 225 -54 112
-183 205 -348 251 -105 30 -281 32 -370 5 -223 -67 -306 -202 -245 -399 33
-107 90 -173 228 -265 204 -138 213 -155 217 -417 2 -147 8 -212 24 -285 l20
-95 -28 -30 c-40 -41 -78 -122 -97 -202 -21 -89 -14 -252 15 -342 l20 -64 -36
-61 c-93 -160 -180 -254 -282 -305 -87 -44 -168 -61 -302 -61 l-116 0 13 68
c61 323 40 788 -61 1389 -162 958 -442 1875 -777 2548 -88 175 -159 283 -240
362 -208 203 -558 358 -968 429 -92 16 -506 28 -605 18z m618 -161 c77 -13 96
-21 147 -60 76 -57 131 -127 185 -233 24 -47 54 -95 67 -107 29 -28 106 -44
154 -33 78 18 99 72 65 171 -11 35 -19 64 -18 66 2 1 45 -24 96 -58 109 -70
198 -152 251 -230 36 -51 140 -239 140 -251 0 -3 -18 -10 -40 -17 -44 -13 -60
-34 -60 -80 0 -69 38 -103 149 -131 l65 -16 57 -139 57 -139 -39 -18 c-44 -19
-62 -52 -53 -97 9 -42 43 -70 115 -95 l62 -21 29 -85 c71 -208 174 -568 238
-825 61 -248 130 -565 130 -598 0 -8 -28 -12 -92 -12 -74 0 -100 -4 -125 -19
-47 -29 -67 -72 -61 -135 9 -91 74 -135 246 -167 79 -14 93 -20 97 -38 10 -45
35 -238 35 -267 0 -24 -4 -29 -17 -25 -10 3 -45 10 -77 15 -177 32 -235 -6
-224 -144 10 -113 55 -160 180 -190 40 -9 94 -23 121 -32 l47 -15 0 -163 c0
-90 -7 -217 -15 -282 -16 -120 -53 -298 -61 -290 -3 2 0 25 6 50 19 87 29 266
23 420 l-6 154 -79 -53 c-102 -70 -171 -104 -294 -147 -222 -77 -400 -102
-668 -94 -345 10 -644 90 -873 234 l-85 53 -32 -25 c-45 -34 -89 -48 -248 -79
-221 -43 -561 -162 -738 -258 -113 -62 -240 -149 -240 -165 0 -23 68 -181 117
-273 63 -119 124 -201 217 -299 l81 -83 -58 4 c-55 5 -61 8 -118 64 -128 125
-232 298 -303 501 l-35 102 82 59 c200 143 396 236 705 336 132 43 193 57 356
86 128 22 158 34 196 75 52 55 19 190 -59 242 -43 29 -108 30 -265 3 -250 -43
-474 -114 -695 -221 -139 -67 -299 -165 -371 -227 l-35 -30 -38 157 -38 156
28 22 c15 12 30 19 34 15 4 -4 14 -41 24 -82 9 -41 19 -83 21 -92 4 -14 18 -9
82 34 211 138 575 284 857 343 72 15 131 28 132 29 1 1 -20 37 -47 81 l-49 80
57 17 c36 11 69 29 87 48 27 28 30 38 30 93 0 75 -37 147 -88 174 -54 29 -198
15 -432 -43 -224 -55 -558 -200 -735 -318 -46 -31 -85 -54 -88 -52 -3 4 -62
203 -62 213 0 1 21 -5 46 -14 35 -12 48 -22 56 -44 12 -34 12 -34 46 -10 15
10 44 21 64 25 21 4 57 22 80 41 108 87 404 202 661 256 31 7 57 16 57 20 0 4
-20 52 -45 106 l-44 98 39 7 c61 11 127 43 146 73 42 64 4 199 -66 236 -124
67 -618 -62 -962 -250 -105 -57 -107 -58 -169 -52 l-62 6 -24 69 c-12 39 -23
75 -23 81 0 9 59 45 74 45 1 0 13 -34 26 -75 13 -41 27 -75 31 -75 4 0 44 21
90 47 175 98 392 183 594 233 72 17 135 33 142 35 8 3 2 28 -18 82 -16 42 -25
80 -21 84 4 3 56 18 116 33 206 51 256 101 221 223 -20 68 -64 116 -123 134
-51 15 -155 -3 -364 -62 -287 -82 -696 -262 -833 -366 l-49 -38 -48 118 c-26
66 -48 123 -48 127 0 9 69 54 75 49 1 -2 17 -41 35 -87 17 -46 35 -82 38 -80
4 2 75 37 157 79 189 97 362 169 537 226 76 25 138 48 138 52 0 4 -13 46 -29
94 l-30 87 42 10 c227 58 275 80 302 137 15 30 16 44 6 91 -32 158 -112 185
-366 122 -332 -81 -636 -213 -900 -388 -55 -37 -105 -68 -111 -70 -10 -3 -54
155 -54 193 1 21 45 60 58 51 5 -3 14 -30 22 -60 7 -30 16 -60 20 -66 6 -9 39
6 116 53 207 123 442 230 649 292 50 15 91 28 92 29 1 1 -9 39 -22 86 -14 46
-24 85 -22 86 1 1 52 16 112 32 196 52 240 89 232 194 -6 69 -38 130 -82 154
-47 25 -143 14 -303 -35 -317 -98 -589 -230 -825 -402 -37 -27 -69 -49 -72
-49 -18 0 40 228 84 330 51 119 70 139 32 34 -28 -76 -66 -243 -57 -251 2 -2
41 20 87 50 111 72 243 145 354 194 96 43 262 107 308 118 31 8 31 10 14 134
l-12 85 -60 25 c-83 34 -230 40 -332 13 -40 -10 -73 -15 -73 -11 0 3 17 22 39
42 107 97 359 67 499 -58 112 -101 161 -115 237 -70 56 32 79 69 79 125 -1 62
-31 116 -103 182 -65 61 -137 105 -216 133 -68 25 -72 31 -37 49 25 13 36 14
56 5 22 -10 29 -7 71 32 66 62 68 63 143 44 161 -40 257 -113 366 -278 94
-144 120 -167 189 -167 99 1 167 53 167 128 0 49 -37 154 -74 207 -68 101
-153 175 -261 229 l-68 33 89 16 c183 33 196 33 261 -2 139 -74 241 -186 302
-331 62 -147 110 -188 199 -175 132 20 160 98 94 265 -37 95 -85 171 -144 230
l-53 52 60 -6 c33 -4 100 -14 148 -23z m2916 -2264 c24 -5 67 -21 95 -34 129
-61 187 -152 210 -327 29 -216 135 -344 315 -378 107 -20 227 22 681 240 409
197 503 225 745 225 156 0 162 -1 223 -29 65 -30 108 -70 118 -111 13 -54 -88
-137 -240 -196 -102 -40 -340 -99 -518 -129 -137 -23 -138 -23 -233 -5 -174
33 -435 -1 -605 -77 -109 -49 -203 -137 -241 -226 -22 -51 -42 -183 -45 -303
-1 -48 -7 -96 -14 -108 -14 -26 -56 -44 -86 -37 -60 15 -199 227 -233 353 -11
43 -34 172 -51 288 -27 186 -34 214 -60 255 -33 52 -159 177 -298 295 -98 84
-159 153 -169 193 -8 35 39 79 112 102 68 21 220 26 294 9z m1442 -878 c113
-43 189 -142 189 -249 0 -52 -1 -54 -22 -48 -120 37 -134 38 -303 33 -172 -5
-218 -13 -393 -67 -111 -35 -162 -25 -204 37 -81 123 104 265 408 313 95 15
260 5 325 -19z m-14 -464 c126 -38 154 -56 185 -118 16 -30 29 -70 30 -89 3
-33 0 -37 -47 -60 -49 -25 -54 -25 -290 -25 -343 0 -410 17 -456 120 -27 59
-24 79 19 113 96 76 160 92 337 88 113 -3 156 -9 222 -29z m-1334 -220 c9 -64
46 -153 95 -230 22 -34 44 -74 47 -88 14 -56 -52 -76 -130 -40 -49 22 -120 99
-136 148 -23 70 2 233 47 300 l15 23 28 -32 c19 -22 30 -49 34 -81z m-6243
-597 c143 -18 219 -47 263 -100 38 -45 50 -95 32 -138 l-15 -35 -53 9 c-90 15
-238 10 -274 -9 -35 -18 -63 -62 -63 -97 0 -20 3 -21 58 -13 137 19 289 -5
410 -66 169 -85 354 -274 428 -436 29 -63 42 -185 29 -270 -7 -52 -49 -105
-82 -105 -16 0 -18 8 -15 71 10 197 -83 386 -223 454 -46 23 -166 27 -202 7
-27 -15 -27 -15 -7 33 14 33 14 39 -1 61 -20 30 -52 31 -96 1 -108 -72 -90
-222 53 -439 39 -61 56 -78 74 -78 26 0 54 43 54 83 0 20 -31 120 -54 178 -5
11 4 20 29 32 110 53 174 -15 221 -236 29 -139 12 -240 -60 -344 -38 -55 -73
-66 -159 -51 -98 18 -161 61 -307 210 -85 86 -149 143 -172 153 -50 20 -99 19
-233 -6 -129 -24 -208 -20 -249 12 -62 49 -71 221 -25 437 21 96 33 126 99
229 12 19 10 30 -19 103 -27 69 -31 91 -26 129 8 61 42 120 85 148 93 64 315
95 500 73z m4835 -44 c70 -29 112 -138 122 -311 9 -172 -39 -325 -128 -410
-23 -22 -40 -35 -37 -30 2 6 18 39 35 75 45 95 58 161 58 290 0 167 -38 295
-96 325 -36 19 -110 19 -154 1 -38 -16 -40 -15 -24 16 26 49 152 74 224 44z
m-503 -42 c93 -67 145 -244 135 -459 -6 -132 -30 -215 -87 -301 -85 -130 -258
-292 -334 -313 -49 -13 -55 -9 -20 14 44 28 184 166 230 226 96 125 127 224
126 406 0 170 -35 313 -88 370 -27 28 -38 33 -76 33 -59 0 -125 -24 -162 -58
l-29 -27 7 30 c19 80 82 117 188 113 56 -3 74 -9 110 -34z m-647 -43 c47 -21
105 -82 136 -142 33 -66 69 -223 69 -304 0 -228 -171 -432 -512 -610 l-99 -52
58 -10 c53 -9 46 -10 -82 -11 -109 0 -134 2 -115 10 127 56 247 118 316 164
152 102 269 236 311 357 53 151 -15 456 -116 524 -64 43 -203 22 -245 -38 -20
-29 -21 -8 -2 29 46 88 182 128 281 83z m-677 -97 c105 -43 164 -173 164 -359
0 -142 -44 -241 -146 -331 -61 -54 -211 -131 -318 -165 -43 -13 -78 -27 -78
-31 0 -3 13 -9 30 -13 16 -4 32 -10 35 -15 7 -12 -71 -21 -97 -11 -92 36 -92
30 5 62 188 62 340 167 401 278 37 68 59 180 51 256 -14 137 -53 217 -118 249
-43 20 -126 21 -172 2 l-35 -15 16 30 c33 65 175 100 262 63z m3734 -924 c59
-18 148 -65 148 -78 0 -4 -25 -18 -56 -31 -30 -13 -80 -39 -111 -58 l-56 -33
-56 20 c-126 48 -317 33 -460 -35 -93 -44 -202 -127 -277 -209 l-56 -61 48 65
c177 239 444 418 659 439 79 8 147 2 217 -19z m454 -265 c27 -14 60 -33 73
-44 l23 -18 -79 -7 c-44 -3 -113 -15 -152 -25 l-73 -19 -64 41 c-35 22 -63 42
-61 43 1 1 36 14 77 28 102 35 188 35 256 1z m-2021 -896 c2 -3 -8 -29 -23
-57 l-27 -52 -71 0 c-88 0 -185 -28 -243 -71 -24 -17 -45 -28 -48 -26 -2 3 24
35 58 72 97 103 187 147 291 142 32 -2 60 -6 63 -8z"/>
<path d="M5225 8806 c-5 -2 -22 -7 -37 -10 -38 -9 -36 -38 7 -123 51 -97 52
-98 115 -79 69 21 167 20 216 0 21 -9 52 -32 70 -51 18 -19 34 -31 37 -26 10
17 -25 120 -59 171 -36 55 -76 85 -134 102 -37 11 -198 23 -215 16z"/>
<path d="M4481 8584 c-73 -19 -150 -65 -222 -132 -65 -59 -94 -107 -115 -187
-14 -50 -19 -175 -8 -175 3 0 42 29 87 66 183 146 261 183 407 193 l95 6 -3
35 c-5 45 -37 118 -65 148 -48 51 -102 65 -176 46z"/>
<path d="M5445 8331 c-131 -61 -184 -230 -152 -481 20 -150 45 -250 91 -359
56 -134 131 -238 202 -282 21 -12 34 -29 34 -41 0 -23 -10 -25 138 27 67 24
130 39 178 42 41 3 77 9 79 13 3 4 -4 15 -14 24 -19 17 -19 18 0 51 54 91 60
269 15 426 -13 46 -34 124 -45 173 -46 194 -188 379 -319 416 -60 16 -162 12
-207 -9z m203 -207 c142 -71 271 -305 304 -554 12 -91 5 -165 -21 -232 -9 -24
-16 -28 -51 -28 -22 0 -40 2 -40 3 0 2 7 18 16 35 31 63 38 141 21 226 -9 43
-18 81 -21 83 -2 3 -24 -7 -48 -21 -24 -13 -55 -29 -70 -35 l-27 -10 14 47 c8
26 19 74 24 107 11 57 10 61 -11 78 -72 57 -164 75 -224 44 -40 -21 -80 -65
-97 -107 l-15 -34 -7 58 c-9 72 -1 208 17 260 7 22 27 54 44 73 28 30 37 33
86 33 38 0 69 -8 106 -26z"/>
<path d="M4622 8200 c-24 -5 -67 -20 -95 -33 -156 -74 -211 -173 -210 -382 0
-239 80 -503 201 -664 l40 -53 -29 -46 c-30 -48 -39 -88 -16 -79 218 89 264
101 392 101 90 1 106 -2 163 -28 34 -16 65 -26 69 -22 4 4 2 20 -4 35 -9 25
-6 38 23 97 68 139 68 257 -1 534 -35 138 -55 197 -97 280 -64 128 -145 217
-222 243 -62 21 -158 29 -214 17z m146 -235 c139 -64 267 -245 324 -457 29
-109 32 -270 5 -340 -10 -27 -23 -48 -28 -48 -4 0 -28 10 -52 21 l-44 22 18
48 c29 75 20 255 -12 275 -5 3 -38 -11 -74 -32 -37 -20 -68 -35 -70 -33 -2 2
2 31 10 64 7 33 15 81 19 106 l5 46 -47 25 c-26 14 -62 28 -80 32 -54 10 -125
-11 -172 -52 -42 -35 -89 -117 -91 -157 -1 -42 -17 20 -24 96 -8 92 8 195 42
271 56 125 155 167 271 113z"/>
<path d="M5579 7131 c-71 -23 -96 -61 -39 -61 108 0 178 -109 119 -184 -24
-30 -18 -46 18 -46 39 0 92 30 108 61 18 33 19 102 4 132 -17 32 -50 67 -79
82 -34 17 -100 25 -131 16z"/>
<path d="M6072 7018 c-18 -18 -14 -74 8 -117 l19 -38 -22 -21 c-68 -64 -233
-132 -399 -166 -161 -33 -457 -16 -624 35 -102 31 -103 32 -94 74 11 48 -5
104 -33 114 -33 12 -45 4 -73 -50 -45 -91 -140 -136 -261 -126 -37 3 -77 1
-90 -4 -34 -13 -31 -58 7 -94 26 -25 40 -30 104 -35 l73 -5 82 -160 c189 -368
339 -534 582 -649 126 -60 193 -76 330 -83 199 -10 336 37 508 173 100 79 113
102 86 152 -25 47 -55 52 -100 18 -18 -14 -36 -26 -40 -26 -3 0 -19 21 -36 48
-36 57 -64 144 -74 231 l-7 64 43 37 43 37 -18 124 c-17 118 -17 125 0 134 59
34 142 106 159 137 l20 38 -85 85 c-46 47 -87 85 -90 85 -3 0 -11 -5 -18 -12z
m-108 -415 c3 -16 8 -49 12 -76 l6 -47 -56 -25 c-182 -80 -450 -114 -639 -80
-91 16 -198 63 -245 108 -30 29 -98 117 -90 117 2 0 46 -11 98 -24 270 -68
607 -57 832 28 81 30 76 30 82 -1z"/>
<path d="M6092 5651 c-55 -42 -132 -75 -198 -86 -67 -12 -74 -15 -74 -40 0
-77 187 -84 283 -11 74 56 108 131 75 164 -19 19 -30 15 -86 -27z"/>
<path d="M3183 3656 c-73 -24 -127 -62 -211 -151 -98 -103 -166 -204 -237
-350 -127 -262 -184 -525 -185 -842 0 -509 147 -825 477 -1021 177 -106 345
-152 556 -152 200 0 361 40 419 105 54 60 98 145 98 190 0 28 9 54 31 85 164
243 149 504 -39 682 -110 104 -317 198 -434 198 -35 0 -48 4 -46 12 3 8 31 13
79 14 155 4 282 88 374 247 l28 49 51 -6 c343 -42 717 -33 881 20 110 36 253
125 375 233 l35 31 -22 17 c-12 10 -84 66 -160 124 l-138 105 -55 -39 c-75
-53 -134 -82 -211 -104 -116 -32 -474 -21 -689 23 -22 4 -27 13 -37 64 -25
131 -106 246 -210 296 -66 33 -173 42 -263 25 -56 -11 -63 -11 -90 9 -16 12
-58 35 -92 51 -35 16 -83 43 -108 59 -54 36 -119 45 -177 26z m73 -140 c21
-16 22 -14 -28 -45 -28 -17 -46 -21 -68 -16 -16 4 -30 10 -30 14 0 7 88 60
101 61 3 0 14 -6 25 -14z m189 -93 c19 -9 35 -19 35 -22 0 -3 -12 -19 -26 -35
l-26 -29 -70 34 -71 35 34 17 c43 21 79 21 124 0z m400 -66 c26 -14 52 -42 73
-77 44 -74 42 -84 -10 -60 -24 11 -50 20 -59 20 -11 0 -19 12 -23 33 -3 18
-15 50 -25 70 -22 43 -13 46 44 14z m75 -626 c0 -5 -15 -29 -33 -53 -35 -45
-103 -92 -152 -103 -28 -6 -29 -6 -13 12 10 10 29 44 42 76 24 52 29 57 58 58
18 1 44 5 58 9 35 11 40 11 40 1z m-464 -208 l22 -28 -35 -67 c-20 -38 -41
-68 -47 -68 -7 0 -33 -13 -58 -29 l-47 -30 16 52 c8 29 24 69 34 89 19 38 76
108 87 108 4 0 16 -12 28 -27z m226 -274 c80 -17 207 -80 265 -133 61 -56 111
-147 119 -223 9 -69 -11 -165 -49 -243 -34 -69 -54 -84 -124 -96 l-41 -6 22
58 c17 48 21 82 21 184 0 119 -1 128 -31 190 -17 36 -43 80 -59 98 -72 86
-190 134 -332 136 -88 1 -91 2 -55 14 85 30 185 38 264 21z m238 -824 c0 -13
-29 -61 -46 -77 -20 -17 -134 -51 -134 -40 1 4 11 27 24 52 21 39 29 46 72 56
57 14 84 16 84 9z"/>
</g>
</svg>
