<svg width="23" height="23" viewBox="0 0 23 23" fill="none" xmlns="http://www.w3.org/2000/svg">
<path d="M14.25 0.75H21.125C21.8555 0.75 22.5 1.39453 22.5 2.125V9C22.5 9.77344 21.8555 10.375 21.125 10.375C20.3516 10.375 19.75 9.77344 19.75 9V5.47656L11.0703 14.1133C10.5547 14.6719 9.65234 14.6719 9.13672 14.1133C8.57812 13.5977 8.57812 12.6953 9.13672 12.1797L17.7734 3.5H14.25C13.4766 3.5 12.875 2.89844 12.875 2.125C12.875 1.39453 13.4766 0.75 14.25 0.75ZM3.9375 2.125H8.75C9.48047 2.125 10.125 2.76953 10.125 3.5C10.125 4.27344 9.48047 4.875 8.75 4.875H3.9375C3.55078 4.875 3.25 5.21875 3.25 5.5625V19.3125C3.25 19.6992 3.55078 20 3.9375 20H17.6875C18.0312 20 18.375 19.6992 18.375 19.3125V14.5C18.375 13.7695 18.9766 13.125 19.75 13.125C20.4805 13.125 21.125 13.7695 21.125 14.5V19.3125C21.125 21.2461 19.5781 22.75 17.6875 22.75H3.9375C2.00391 22.75 0.5 21.2461 0.5 19.3125V5.5625C0.5 3.67188 2.00391 2.125 3.9375 2.125Z" fill="white"/>
</svg>
